<?xml version="1.0" encoding="utf-8"?>
<!-- Generator: Adobe Illustrator 18.1.1, SVG Export Plug-In . SVG Version: 6.00 Build 0)  -->
<svg version="1.1" id="Layer_1" xmlns="http://www.w3.org/2000/svg" xmlns:xlink="http://www.w3.org/1999/xlink" x="0px" y="0px"
	 viewBox="0 0 256 256" enable-background="new 0 0 256 256" xml:space="preserve">
<g>
	
		<linearGradient id="SVGID_1_" gradientUnits="userSpaceOnUse" x1="74.7923" y1="141.1852" x2="74.7923" y2="141.1852" gradientTransform="matrix(1 -0.2552 0 1 0 -16.1278)">
		<stop  offset="7.500000e-003" style="stop-color:#064167"/>
		<stop  offset="0.1252" style="stop-color:#165166"/>
		<stop  offset="0.3344" style="stop-color:#316A60"/>
		<stop  offset="0.5332" style="stop-color:#448156"/>
		<stop  offset="0.7161" style="stop-color:#53924C"/>
		<stop  offset="0.8774" style="stop-color:#5C9E45"/>
		<stop  offset="1" style="stop-color:#5FA243"/>
	</linearGradient>
	<path fill="url(#SVGID_1_)" d="M74.8,106"/>
	
		<linearGradient id="SVGID_2_" gradientUnits="userSpaceOnUse" x1="136.8313" y1="203.9629" x2="57.4792" y2="85.2011" gradientTransform="matrix(1 -0.2552 0 1 0 -16.1278)">
		<stop  offset="7.500000e-003" style="stop-color:#064167"/>
		<stop  offset="0.1252" style="stop-color:#165166"/>
		<stop  offset="0.3344" style="stop-color:#316A60"/>
		<stop  offset="0.5332" style="stop-color:#448156"/>
		<stop  offset="0.7161" style="stop-color:#53924C"/>
		<stop  offset="0.8774" style="stop-color:#5C9E45"/>
		<stop  offset="1" style="stop-color:#5FA243"/>
	</linearGradient>
	<path fill="url(#SVGID_2_)" d="M82.9,109.7l52.2,44.8l-43.8,12.9c-32.5,9.6-60.2-12.3-59.6-49.9c0-1.8,0.1-3.6,0.3-5.5
		c2.9-36.7,30.2-71.4,61.4-80.5l32.6-9.6v49.8L91.3,81.8C80.2,85.2,75.1,102.9,82.9,109.7z"/>
	
		<linearGradient id="SVGID_3_" gradientUnits="userSpaceOnUse" x1="204.228" y1="130.0319" x2="160.8491" y2="65.1091" gradientTransform="matrix(1 -0.2552 0 1 0 -16.1278)">
		<stop  offset="0" style="stop-color:#99CA3C"/>
		<stop  offset="1" style="stop-color:#6D963E"/>
	</linearGradient>
	<path fill="url(#SVGID_3_)" d="M225.3,42.3L225.3,42.3L155.1,63V13.2l27-8C206-1.7,225.3,14.9,225.3,42.3z"/>
	
		<linearGradient id="SVGID_4_" gradientUnits="userSpaceOnUse" x1="-480.888" y1="28.5879" x2="-560.2399" y2="-90.1739" gradientTransform="matrix(-1 0.2552 0 -1 -360.8018 254.0199)">
		<stop  offset="7.500000e-003" style="stop-color:#064167"/>
		<stop  offset="0.1252" style="stop-color:#165166"/>
		<stop  offset="0.3344" style="stop-color:#316A60"/>
		<stop  offset="0.5332" style="stop-color:#448156"/>
		<stop  offset="0.7161" style="stop-color:#53924C"/>
		<stop  offset="0.8774" style="stop-color:#5C9E45"/>
		<stop  offset="1" style="stop-color:#5FA243"/>
	</linearGradient>
	<path fill="url(#SVGID_4_)" d="M174,145.9l-52.2-44.8l43.8-12.9c32.5-9.6,60.2,12.3,59.6,49.9c0,1.8-0.1,3.6-0.3,5.5
		c-2.9,36.7-30.2,71.4-61.4,80.5l-32.6,9.6v-49.8l34.6-10.2C176.8,170.4,181.8,152.7,174,145.9z"/>
	
		<linearGradient id="SVGID_5_" gradientUnits="userSpaceOnUse" x1="-413.4909" y1="-45.343" x2="-456.8698" y2="-110.2658" gradientTransform="matrix(-1 0.2552 0 -1 -360.8018 254.0199)">
		<stop  offset="0" style="stop-color:#99CA3C"/>
		<stop  offset="1" style="stop-color:#6D963E"/>
	</linearGradient>
	<path fill="url(#SVGID_5_)" d="M31.6,213.3L31.6,213.3l70.2-20.7v49.8l-27,8C51,257.4,31.6,240.8,31.6,213.3z"/>
</g>
</svg>
